{
  "accessors": [
    {
      "bufferView": 2,
      "componentType": 5126,
      "count": 1894,
      "max": [
        0.65747547149658203,
        0.65347814559936523,
        2.4926445484161377
      ],
      "min": [
        -0.65747559070587158,
        -0.65347790718078613,
        -2.4926445484161377
      ],
      "type": "VEC3"
    },
    {
      "bufferView": 2,
      "byteOffset": 22728,
      "componentType": 5126,
      "count": 1894,
      "max": [
        0.9987938404083252,
        0.99915462732315063,
        0.99995511770248413
      ],
      "min": [
        -0.99933427572250366,
        -0.99903333187103271,
        -0.99995517730712891
      ],
      "type": "VEC3"
    },
    {
      "bufferView": 1,
      "componentType": 5126,
      "count": 1894,
      "max": [
        3.7904000282287598,
        3.7420001029968262
      ],
      "min": [
        0.0210999995470047,
        0.021900000050663948
      ],
      "type": "VEC2"
    },
    {
      "bufferView": 0,
      "componentType": 5125,
      "count": 8256,
      "max": [
        1893
      ],
      "min": [
        0
      ],
      "type": "SCALAR"
    }
  ],
  "asset": {
    "extras": {
      "author": "kozlowicz.w (https://sketchfab.com/kozlowicz.w)",
      "license": "CC-BY-4.0 (http://creativecommons.org/licenses/by/4.0/)",
      "source": "https://sketchfab.com/3d-models/heineken2-hiro-299ed84be8904bacaf63fa90c8a5fa8d",
      "title": "Heineken2 HIRO"
    },
    "generator": "Sketchfab-8.5.0",
    "version": "2.0"
  },
  "bufferViews": [
    {
      "buffer": 0,
      "byteLength": 33024,
      "byteOffset": 0,
      "name": "floatBufferViews",
      "target": 34963
    },
    {
      "buffer": 0,
      "byteLength": 15152,
      "byteOffset": 33024,
      "byteStride": 8,
      "name": "floatBufferViews",
      "target": 34962
    },
    {
      "buffer": 0,
      "byteLength": 45456,
      "byteOffset": 48176,
      "byteStride": 12,
      "name": "floatBufferViews",
      "target": 34962
    }
  ],
  "buffers": [
    {
      "byteLength": 93632,
      "uri": "scene.bin"
    }
  ],
  "images": [
    {
      "uri": "textures/heineken_biane_em_0_bmp_baseColor.png"
    }
  ],
  "materials": [
    {
      "doubleSided": true,
      "emissiveFactor": [
        0,
        0,
        0
      ],
      "name": "heineken_biane_em_0_bmp",
      "pbrMetallicRoughness": {
        "baseColorFactor": [
          1,
          1,
          1,
          1
        ],
        "baseColorTexture": {
          "index": 0,
          "texCoord": 0
        },
        "metallicFactor": 0,
        "roughnessFactor": 0.90842690167130768
      }
    }
  ],
  "meshes": [
    {
      "name": "biane_em_0_bmp_heineken_biane_em_0_bmp_0",
      "primitives": [
        {
          "attributes": {
            "NORMAL": 1,
            "POSITION": 0,
            "TEXCOORD_0": 2
          },
          "indices": 3,
          "material": 0,
          "mode": 4
        }
      ]
    }
  ],
  "nodes": [
    {
      "children": [
        1
      ],
      "name": "RootNode (gltf orientation matrix)",
      "rotation": [
        -0.70710678118654746,
        -0,
        -0,
        0.70710678118654757
      ]
    },
    {
      "children": [
        2
      ],
      "name": "RootNode (model correction matrix)"
    },
    {
      "children": [
        3
      ],
      "matrix": [
        1,
        0,
        0,
        0,
        0,
        0,
        1,
        0,
        0,
        -1,
        0,
        0,
        0,
        0,
        0,
        1
      ],
      "name": "acc16ec8128f4a2ab0917656fc4c09be.fbx"
    },
    {
      "children": [
        4
      ],
      "name": "RootNode"
    },
    {
      "children": [
        5
      ],
      "matrix": [
        1,
        0,
        0,
        0,
        0,
        2.2204460492503131e-16,
        -1,
        0,
        0,
        1,
        2.2204460492503131e-16,
        0,
        0,
        0,
        0,
        1
      ],
      "name": "biane_em_0_bmp"
    },
    {
      "mesh": 0,
      "name": "biane_em_0_bmp_heineken_biane_em_0_bmp_0"
    }
  ],
  "samplers": [
    {
      "magFilter": 9729,
      "minFilter": 9987,
      "wrapS": 10497,
      "wrapT": 10497
    }
  ],
  "scene": 0,
  "scenes": [
    {
      "name": "OSG_Scene",
      "nodes": [
        0
      ]
    }
  ],
  "textures": [
    {
      "sampler": 0,
      "source": 0
    }
  ]
}

